<?xml version="1.0" encoding="utf-8"?>
<!-- Generator: Adobe Illustrator 27.0.0, SVG Export Plug-In . SVG Version: 6.00 Build 0)  -->
<svg version="1.1" id="Layer_2" xmlns="http://www.w3.org/2000/svg" xmlns:xlink="http://www.w3.org/1999/xlink" x="0px" y="0px"
	 viewBox="0 0 1000 1000" style="enable-background:new 0 0 1000 1000;" xml:space="preserve">
<style type="text/css">
	.st0{display:none;fill:#101922;}
	.st1{fill:#FFFFFF;}
	.st2{fill:#C9302C;}
	.st3{opacity:0.5;}
	.st4{display:none;}
	.st5{display:inline;}
	.st6{font-family:'Roboto-Black';}
	.st7{font-size:60px;}
</style>
<rect x="-0.39" class="st0" width="1000" height="1000"/>
<g>
	<g>
		<rect x="170.69" y="223.53" class="st1" width="20.72" height="600.5"/>
	</g>
	<g>
		<rect x="171.71" y="803.71" class="st1" width="668.87" height="20.64"/>
	</g>
	<polygon class="st2" points="404.3,499.31 385.58,466.89 396.45,449.95 469.44,449.95 480.11,466.9 442.94,531.29 422.59,531.33 	
		"/>
	<polygon class="st2" points="764.78,272.89 746.06,240.47 756.92,223.53 829.92,223.53 840.58,240.48 803.41,304.87 783.06,304.91 
			"/>
	<polygon class="st2" points="549.75,595.27 539.09,578.32 576.26,513.93 596.61,513.89 614.89,545.9 633.61,578.33 622.75,595.27 	
		"/>
	<polygon class="st2" points="210.6,789 199.93,772.05 237.1,707.67 257.45,707.62 275.74,739.64 294.46,772.06 283.59,789 	"/>
	<polygon class="st1" points="406.98,544.34 295.98,734.71 293.1,729.72 273.06,694.62 384.07,504.26 386.94,509.23 	"/>
	<polygon class="st1" points="549.59,520.13 529.54,554.85 469.62,525.08 489.66,490.36 	"/>
	<polygon class="st1" points="767.3,317.64 767.3,317.65 635.21,541.1 632.26,535.99 612.37,501.15 744.46,277.7 747.41,282.81 	"/>
	<g class="st3">
		<polygon class="st1" points="332.59,711.62 332.59,789 442.59,789 442.59,551.29 426.06,551.33 		"/>
		<polygon class="st1" points="515.74,578.76 519.52,572.21 465.26,545.25 465.26,789 575.26,789 575.26,615.27 538.71,615.27 		"/>
		<polygon class="st1" points="657.02,578.87 633.68,615.27 597.92,615.27 597.92,789 707.92,789 707.92,457.41 646.69,560.99 		"/>
		<polygon class="st1" points="786.24,324.91 730.58,419.07 730.58,789 840.58,789 840.58,280.48 814.97,324.84 		"/>
	</g>
</g>
<g class="st4">
	<g class="st5">
		<g>
			<rect x="179.36" y="369.6" class="st1" width="9" height="260.8"/>
		</g>
		<g>
			<rect x="179.65" y="621.4" class="st1" width="291.72" height="9"/>
		</g>
		<polygon class="st2" points="309.14,474.73 302.07,486.98 295.06,499.11 291.12,499.12 284.19,486.98 277.12,474.75 279.2,471.5 
			293.13,471.5 307.11,471.5 		"/>
		<polygon class="st2" points="471.37,372.83 464.29,385.08 457.29,397.21 453.35,397.22 446.42,385.08 439.35,372.85 441.43,369.6 
			455.35,369.6 469.34,369.6 		"/>
		<polygon class="st2" points="346.19,524.67 353.27,512.41 360.27,500.29 364.22,500.28 371.15,512.41 378.21,524.65 376.13,527.9 
			362.21,527.9 348.22,527.9 		"/>
		<polygon class="st2" points="193.56,611.86 200.63,599.6 207.63,587.48 211.58,587.47 218.51,599.6 225.57,611.84 223.49,615.09 
			209.57,615.09 195.59,615.09 		"/>
		<polygon class="st1" points="284.14,495.99 223.72,599.61 222.42,597.37 218.55,590.6 218.55,590.6 278.99,486.97 280.28,489.21 
					"/>
		<polygon class="st1" points="351.48,506.5 346.97,514.32 303.85,492.89 308.36,485.08 		"/>
		<polygon class="st1" points="446.35,394.04 376.36,512.44 375.05,510.18 371.21,503.46 441.2,385.05 442.51,387.31 		"/>
		<g class="st3">
			<polygon class="st1" points="230.84,611.96 228.84,615.08 238.56,615.08 238.56,583.09 226.31,604.1 			"/>
			<polygon class="st1" points="286.72,500.5 251.76,560.45 251.76,615.08 296.76,615.08 296.76,503.6 288.51,503.62 			"/>
			<polygon class="st1" points="340.94,524.77 344.72,518.22 309.96,500.95 309.96,615.08 354.97,615.08 354.97,532.4 345.74,532.4 
							"/>
			<polygon class="st1" points="383.48,524.77 378.59,532.4 368.16,532.4 368.16,615.08 413.17,615.08 413.17,459.01 378.94,516.91 
							"/>
			<polygon class="st1" points="450.74,401.72 448.92,398.54 426.37,436.68 426.37,615.08 471.37,615.08 471.37,381.83 
				459.89,401.71 			"/>
		</g>
	</g>
	<text transform="matrix(1 0 0 1 566.3118 453.0656)" class="st5"><tspan x="0" y="0" class="st1 st6 st7">Detailed</tspan><tspan x="0" y="72" class="st1 st6 st7">Game</tspan><tspan x="0" y="144" class="st1 st6 st7">Statistics</tspan></text>
</g>
</svg>
